<?xml version="1.0" encoding="utf-8"?>
<!-- Generator: Adobe Illustrator 26.4.1, SVG Export Plug-In . SVG Version: 6.00 Build 0)  -->
<svg version="1.1" id="图层_1" xmlns="http://www.w3.org/2000/svg" xmlns:xlink="http://www.w3.org/1999/xlink" x="0px" y="0px"
	 viewBox="0 0 1024 1024" style="enable-background:new 0 0 1024 1024;" xml:space="preserve">
<style type="text/css">
	.st0{fill:#43E700;}
</style>
<g id="background">
</g>
<g id="shape_P1i1rJC8Tr" transform="translate(327.69452286174,135.30299377441) rotate(0,82.25,82.25) scale(1,1)">
	<g>
		<g>
			<g>
				<path class="st0" d="M412,117.7H93.4V58.3h-136v59.4h-17.6c-23.5,0-42.5,19.1-42.5,42.7v474.1c0,23.6,19,42.7,42.5,42.7h318.5
					v47.1h136v-47.1h17.7c23.5,0,42.5-19.1,42.5-42.7V160.4C454.5,136.7,435.3,117.7,412,117.7z M63,80.3h19.8v34.8H63V80.3z
					 M63,150h19.8v34.8H63V150z M63,219.4h19.8v34.8H63V219.4z M63,288.9h19.8v34.8H63V288.9z M63,358.4h19.8v34.8H63V358.4z
					 M63,428h19.8v34.8H63V428z M63,497.4h19.8v34.7H63V497.4z M63,566.9h19.8v34.8H63V566.9z M-31.9,80.3h19.8v34.8h-19.8V80.3z
					 M-31.9,150h19.8v34.8h-19.8C-31.9,184.6-31.9,150-31.9,150z M-31.9,219.4h19.8v34.8h-19.8V219.4z M-31.9,288.9h19.8v34.8h-19.8
					V288.9z M-31.9,358.4h19.8v34.8h-19.8V358.4z M-31.9,428h19.8v34.8h-19.8C-31.9,462.6-31.9,428-31.9,428z M-31.9,497.4h19.8
					v34.7h-19.8V497.4z M-31.9,566.9h19.8v34.8h-19.8V566.9z M258.4,654.8H-60.1c-11.1,0-20.2-9.1-20.2-20.3V160.4
					c0-11.2,9.1-20.3,20.2-20.3h17.6v486.2h136V465.9h164.8v188.9H258.4z M288.8,710.9h-19.8v-34.8h19.8V710.9z M288.8,641.4h-19.8
					v-34.8h19.8V641.4z M288.8,571.8h-19.8V537h19.8V571.8z M288.8,502.3h-19.8v-34.8h19.8V502.3z M288.8,432.9h-19.8v-34.8h19.8
					V432.9z M288.8,363.4h-19.8v-34.8h19.8V363.4z M288.8,293.9h-19.8v-34.8h19.8V293.9z M288.8,224.3h-19.8v-34.7h19.8V224.3z
					 M383.6,710.9h-19.8v-34.8h19.8V710.9z M383.6,641.4h-19.8v-34.8h19.8V641.4z M383.6,571.8h-19.8V537h19.8V571.8z M383.6,502.3
					h-19.8v-34.8h19.8V502.3z M383.6,432.9h-19.8v-34.8h19.8V432.9z M383.6,363.4h-19.8v-34.8h19.8V363.4z M383.6,293.9h-19.8v-34.8
					h19.8V293.9z M383.6,224.3h-19.8v-34.7h19.8V224.3z M432.2,634.5c0,11.2-9.1,20.3-20.2,20.3h-17.9V171.6h-136v157.7H93.4V140
					H412c11.1,0,20.2,9.1,20.2,20.3V634.5z"/>
			</g>
		</g>
	</g>
</g>
</svg>
